<?xml version="1.0" encoding="UTF-8"?>
<svg id="Layer_1" data-name="Layer 1" xmlns="http://www.w3.org/2000/svg" version="1.1" xmlns:xlink="http://www.w3.org/1999/xlink" viewBox="0 0 569.4 96">
  <defs>
    <style>
      .cls-1 {
        fill: url(#linear-gradient);
      }

      .cls-1, .cls-2, .cls-3, .cls-4 {
        stroke-width: 0px;
      }

      .cls-5 {
        isolation: isolate;
      }

      .cls-2 {
        fill: url(#linear-gradient-2);
      }

      .cls-3 {
        fill: url(#linear-gradient-3);
      }

      .cls-4 {
        fill: #fff;
      }
    </style>
    <linearGradient id="linear-gradient" x1="2.796" y1="23.306" x2="95.596" y2="78.106" gradientTransform="translate(0 98) scale(1 -1)" gradientUnits="userSpaceOnUse">
      <stop offset="0" stop-color="#8cadff"/>
      <stop offset=".9" stop-color="#a255e2"/>
    </linearGradient>
    <linearGradient id="linear-gradient-2" x1="110.235" y1="47.975" x2="249.771" y2="47.975" gradientUnits="userSpaceOnUse">
      <stop offset="0" stop-color="#8cadff"/>
      <stop offset="1" stop-color="#a255e2"/>
    </linearGradient>
    <linearGradient id="linear-gradient-3" x1="563.082" y1="54.791" x2="260.779" y2="52.81" xlink:href="#linear-gradient-2"/>
  </defs>
  <g>
    <rect class="cls-1" width="96" height="96" rx="15" ry="15"/>
    <path class="cls-4" d="M55.6,39.9v17.4c-1.7-.2-3-.3-4.4-.3-7.8,0-13.2,4-13.2,13.7v25.4h-19.4v-55.2h18.4v6.6c4-5,10.4-7.5,18.5-7.5l.1-.1Z"/>
    <g class="cls-5">
      <g class="cls-5">
        <path class="cls-4" d="M70.29,8.822v3.345c-.309-.056-.562-.084-.815-.084-2.67,0-4.357,1.573-4.357,4.638v7.279h-3.513v-15.009h3.345v2.192c1.012-1.574,2.839-2.361,5.34-2.361Z"/>
        <path class="cls-4" d="M87.797,8.991v20.462h-3.514v-7.28c-1.208,1.378-2.895,2.023-4.806,2.023-4.385,0-7.589-3.035-7.589-7.701,0-4.638,3.204-7.673,7.589-7.673,2.052,0,3.794.703,4.975,2.137v-1.968h3.345ZM84.34,16.495c0-2.866-1.912-4.693-4.469-4.693-2.529,0-4.441,1.827-4.441,4.693s1.912,4.694,4.441,4.694c2.558,0,4.469-1.827,4.469-4.694Z"/>
      </g>
    </g>
  </g>
  <g>
    <path class="cls-2" d="M136.768,36.755v12.499c-1.243-.146-2.12-.219-3.143-.219-5.628,0-9.502,2.851-9.502,9.795v18.201h-13.888v-39.618h13.23v4.751c2.851-3.582,7.456-5.409,13.303-5.409ZM183.987,37.413v39.618h-13.23v-3.947c-2.631,3.143-6.505,4.605-11.695,4.605-10.745,0-19.443-7.894-19.443-20.54,0-12.572,8.698-20.393,19.443-20.393,4.605,0,8.333,1.316,11.037,4.093v-3.436h13.888ZM170.319,57.148c0-5.994-3.655-9.356-8.333-9.356s-8.333,3.362-8.333,9.356c0,6.067,3.655,9.502,8.333,9.502s8.333-3.435,8.333-9.502ZM191.369,25.644c0-4.166,3.362-7.383,8.479-7.383s8.479,2.997,8.479,7.163c0,4.386-3.362,7.602-8.479,7.602s-8.479-3.216-8.479-7.383ZM192.904,37.413h13.888v39.618h-13.888v-39.618ZM212.639,73.595l4.166-9.502c3.655,2.266,8.991,3.655,13.815,3.655,4.678,0,6.213-1.023,6.213-2.704,0-5.336-23.39.731-23.39-15.131,0-7.456,6.871-13.157,19.297-13.157,5.555,0,11.695,1.17,15.642,3.362l-4.166,9.429c-3.947-2.193-7.894-2.924-11.403-2.924-4.678,0-6.359,1.316-6.359,2.778,0,5.482,23.317-.439,23.317,15.277,0,7.309-6.725,13.011-19.589,13.011-6.725,0-13.669-1.681-17.543-4.093Z"/>
    <path class="cls-3" d="M281.701,38.179v3.582c-.292,0-.585-.073-.877-.073-8.479,0-13.522,5.628-13.522,15.058v19.882h-3.655v-38.156h3.509v8.333c2.339-5.555,7.383-8.625,14.546-8.625ZM319.272,68.294l2.12,2.412c-3.362,4.093-8.552,6.213-14.4,6.213-11.549,0-19.736-8.041-19.736-19.37s7.748-19.37,18.566-19.37c10.16,0,17.397,7.602,17.908,17.762l-32.235,6.286c1.827,7.017,7.748,11.403,15.569,11.403,4.897,0,9.283-1.754,12.207-5.336ZM290.838,57.257c0,.731.073,1.535.146,2.266l29.092-5.701c-1.023-6.798-6.432-12.426-14.253-12.426-8.771,0-14.984,6.579-14.984,15.862ZM417.801,38.471v38.156h-3.509v-8.187c-2.485,5.336-7.675,8.479-14.4,8.479-9.722,0-15.935-5.482-15.935-16.154v-22.294h3.655v22.002c0,8.625,4.605,13.157,12.572,13.157,8.625,0,13.961-5.775,13.961-14.838v-20.32h3.655ZM461.145,68.294l2.12,2.412c-3.362,4.093-8.552,6.213-14.4,6.213-11.549,0-19.736-8.041-19.736-19.37s7.748-19.37,18.566-19.37c10.16,0,17.397,7.602,17.908,17.762l-32.235,6.286c1.827,7.017,7.748,11.403,15.569,11.403,4.897,0,9.283-1.754,12.207-5.336ZM432.711,57.257c0,.731.073,1.535.146,2.266l29.092-5.701c-1.023-6.798-6.432-12.426-14.254-12.426-8.771,0-14.984,6.579-14.984,15.862ZM471.303,72.022l1.681-2.924c2.924,2.485,8.113,4.605,13.742,4.605,8.041,0,11.257-2.851,11.257-7.163,0-11.11-25.291-2.924-25.291-17.908,0-5.775,4.824-10.453,14.473-10.453,4.824,0,10.087,1.462,13.084,3.728l-1.681,2.924c-3.216-2.339-7.383-3.436-11.476-3.436-7.456,0-10.745,3.07-10.745,7.163,0,11.476,25.291,3.362,25.291,17.908,0,6.213-5.336,10.453-15.058,10.453-6.286,0-12.28-2.12-15.277-4.897ZM529.633,74.215c-1.9,1.827-4.971,2.704-7.821,2.704-6.725,0-10.38-3.947-10.38-10.38V30.138h3.655v8.333h12.134v3.143h-12.134v24.56c0,4.897,2.412,7.602,7.09,7.602,2.266,0,4.386-.731,5.921-2.12l1.535,2.558ZM535.9,72.022l1.681-2.924c2.924,2.485,8.113,4.605,13.742,4.605,8.041,0,11.257-2.851,11.257-7.163,0-11.11-25.291-2.924-25.291-17.908,0-5.775,4.824-10.453,14.473-10.453,4.824,0,10.087,1.462,13.084,3.728l-1.681,2.924c-3.216-2.339-7.383-3.436-11.476-3.436-7.456,0-10.745,3.07-10.745,7.163,0,11.476,25.291,3.362,25.291,17.908,0,6.213-5.336,10.453-15.058,10.453-6.286,0-12.28-2.12-15.277-4.897ZM369.215,77.712l-5.09-5.09c-8.126,7.086-19.44,6.786-26.962-.736-3.846-3.846-5.931-8.813-5.87-13.985.061-5.178,2.269-10.205,6.22-14.156,3.94-3.94,8.957-6.149,14.126-6.219,5.181-.071,10.158,2.014,14.014,5.87,7.52,7.52,7.819,18.834.736,26.962l5.09,5.09-2.263,2.263ZM357.266,61.391l6.974,6.974c5.857-6.823,5.511-16.345-.851-22.707-6.742-6.742-16.977-6.675-23.808.155-6.853,6.853-6.936,17.105-.194,23.847,6.324,6.324,15.844,6.67,22.706.85l-6.974-6.974,2.147-2.147Z"/>
  </g>
</svg>