<?xml version="1.0" encoding="UTF-8"?>
<svg id="Layer_1" data-name="Layer 1" xmlns="http://www.w3.org/2000/svg" version="1.1" xmlns:xlink="http://www.w3.org/1999/xlink" viewBox="0 0 569.4 96">
  <defs>
    <style>
      .cls-1 {
        fill: url(#linear-gradient);
      }

      .cls-1, .cls-2, .cls-3, .cls-4 {
        stroke-width: 0px;
      }

      .cls-5 {
        font-family: MontserratAlternates-SemiBold, 'Montserrat Alternates';
        font-size: 28.1px;
        font-weight: 600;
      }

      .cls-5, .cls-4 {
        fill: #fff;
      }

      .cls-2 {
        fill: url(#linear-gradient-2);
      }

      .cls-3 {
        fill: url(#linear-gradient-3);
      }
    </style>
    <linearGradient id="linear-gradient" x1="110" y1="48" x2="249.5" y2="48" gradientUnits="userSpaceOnUse">
      <stop offset="0" stop-color="#8cadff"/>
      <stop offset="1" stop-color="#a255e2"/>
    </linearGradient>
    <linearGradient id="linear-gradient-2" x1="562.8" y1="54.8" x2="260.5" y2="52.8" gradientUnits="userSpaceOnUse">
      <stop offset="0" stop-color="#8cadff"/>
      <stop offset="1" stop-color="#a255e2"/>
    </linearGradient>
    <linearGradient id="linear-gradient-3" x1="2.8" y1="74.7" x2="95.6" y2="19.9" gradientUnits="userSpaceOnUse">
      <stop offset="0" stop-color="#8cadff"/>
      <stop offset=".9" stop-color="#a255e2"/>
    </linearGradient>
  </defs>
  <g>
    <path class="cls-1" d="M136.5,36.8v12.5c-1.2-.1-2.1-.2-3.1-.2-5.6,0-9.5,2.9-9.5,9.8v18.2h-13.9v-39.6h13.2v4.8c2.9-3.6,7.5-5.4,13.3-5.4ZM183.8,37.4v39.6h-13.2v-3.9c-2.6,3.1-6.5,4.6-11.7,4.6-10.7,0-19.4-7.9-19.4-20.5s8.7-20.4,19.4-20.4,8.3,1.3,11,4.1v-3.4h13.9ZM170.1,57.1c0-6-3.7-9.4-8.3-9.4s-8.3,3.4-8.3,9.4,3.7,9.5,8.3,9.5,8.3-3.4,8.3-9.5ZM191.1,25.6c0-4.2,3.4-7.4,8.5-7.4s8.5,3,8.5,7.2-3.4,7.6-8.5,7.6-8.5-3.2-8.5-7.4ZM192.7,37.4h13.9v39.6h-13.9v-39.6ZM212.4,73.6l4.2-9.5c3.7,2.3,9,3.7,13.8,3.7s6.2-1,6.2-2.7c0-5.3-23.4.7-23.4-15.1s6.9-13.2,19.3-13.2,11.7,1.2,15.6,3.4l-4.2,9.4c-3.9-2.2-7.9-2.9-11.4-2.9s-6.4,1.3-6.4,2.8c0,5.5,23.3-.4,23.3,15.3s-6.7,13-19.6,13-13.7-1.7-17.5-4.1Z"/>
    <path class="cls-2" d="M281.5,38.2v3.6c-.3,0-.6,0-.9,0-8.5,0-13.5,5.6-13.5,15.1v19.9h-3.7v-38.2h3.5v8.3c2.3-5.6,7.4-8.6,14.5-8.6ZM319,68.3l2.1,2.4c-3.4,4.1-8.6,6.2-14.4,6.2-11.5,0-19.7-8-19.7-19.4s7.7-19.4,18.6-19.4,17.4,7.6,17.9,17.8l-32.2,6.3c1.8,7,7.7,11.4,15.6,11.4s9.3-1.8,12.2-5.3ZM290.6,57.3c0,.7,0,1.5.1,2.3l29.1-5.7c-1-6.8-6.4-12.4-14.3-12.4s-15,6.6-15,15.9ZM417.6,38.5v38.2h-3.5v-8.2c-2.5,5.3-7.7,8.5-14.4,8.5-9.7,0-15.9-5.5-15.9-16.2v-22.3h3.7v22c0,8.6,4.6,13.2,12.6,13.2s14-5.8,14-14.8v-20.3h3.7ZM460.9,68.3l2.1,2.4c-3.4,4.1-8.6,6.2-14.4,6.2-11.5,0-19.7-8-19.7-19.4s7.7-19.4,18.6-19.4,17.4,7.6,17.9,17.8l-32.2,6.3c1.8,7,7.7,11.4,15.6,11.4s9.3-1.8,12.2-5.3ZM432.5,57.3c0,.7,0,1.5.1,2.3l29.1-5.7c-1-6.8-6.4-12.4-14.3-12.4s-15,6.6-15,15.9ZM471.1,72l1.7-2.9c2.9,2.5,8.1,4.6,13.7,4.6,8,0,11.3-2.9,11.3-7.2,0-11.1-25.3-2.9-25.3-17.9s4.8-10.5,14.5-10.5,10.1,1.5,13.1,3.7l-1.7,2.9c-3.2-2.3-7.4-3.4-11.5-3.4-7.5,0-10.7,3.1-10.7,7.2,0,11.5,25.3,3.4,25.3,17.9s-5.3,10.5-15.1,10.5-12.3-2.1-15.3-4.9ZM529.4,74.2c-1.9,1.8-5,2.7-7.8,2.7-6.7,0-10.4-3.9-10.4-10.4V30.1h3.7v8.3h12.1v3.1h-12.1v24.6c0,4.9,2.4,7.6,7.1,7.6s4.4-.7,5.9-2.1l1.5,2.6ZM535.7,72l1.7-2.9c2.9,2.5,8.1,4.6,13.7,4.6,8,0,11.3-2.9,11.3-7.2,0-11.1-25.3-2.9-25.3-17.9s4.8-10.5,14.5-10.5,10.1,1.5,13.1,3.7l-1.7,2.9c-3.2-2.3-7.4-3.4-11.5-3.4-7.5,0-10.7,3.1-10.7,7.2,0,11.5,25.3,3.4,25.3,17.9s-5.3,10.5-15.1,10.5-12.3-2.1-15.3-4.9ZM369,77.7l-5.1-5.1c-8.1,7.1-19.4,6.8-27-.7-3.8-3.8-5.9-8.8-5.9-14,0-5.2,2.3-10.2,6.2-14.2s9-6.1,14.1-6.2c5.2,0,10.2,2,14,5.9,7.5,7.5,7.8,18.8.7,27l5.1,5.1-2.3,2.3ZM357,61.4l7,7c5.9-6.8,5.5-16.3-.9-22.7-6.7-6.7-17-6.7-23.8.2s-6.9,17.1-.2,23.8,15.8,6.7,22.7.9l-7-7,2.1-2.1Z"/>
  </g>
  <g>
    <rect class="cls-3" x="0" y="0" width="96" height="96" rx="15" ry="15"/>
    <path class="cls-4" d="M55.6,39.9v17.4c-1.7-.2-3-.3-4.4-.3-7.8,0-13.2,4-13.2,13.7v25.4h-19.4v-55.2h18.4v6.6c4-5,10.4-7.5,18.5-7.5Z"/>
    <text class="cls-5" transform="translate(59.3 24)"><tspan x="0" y="0">rq</tspan></text>
  </g>
</svg>